<svg xmlns="http://www.w3.org/2000/svg" width="198" height="198" viewBox="0 0 198 198" fill="none">
<circle cx="98.5316" cy="98.5316" r="98.5316" fill="url(#paint0_linear_68_275)"/>
<mask id="mask0_68_275" style="mask-type:alpha" maskUnits="userSpaceOnUse" x="0" y="0" width="197" height="197">
<circle cx="98.5" cy="98.5" r="98.5" fill="url(#paint1_linear_68_275)"/>
</mask>
<g mask="url(#mask0_68_275)">
<rect x="3.86035" y="-17.7617" width="231.293" height="2.07204" transform="rotate(90 3.86035 -17.7617)" fill="white"/>
<rect x="8.64746" y="-17.7617" width="231.293" height="2.07204" transform="rotate(90 8.64746 -17.7617)" fill="white"/>
<rect x="13.4346" y="-17.7617" width="231.293" height="2.07204" transform="rotate(90 13.4346 -17.7617)" fill="white"/>
<rect x="18.2227" y="-17.7617" width="231.293" height="2.07204" transform="rotate(90 18.2227 -17.7617)" fill="white"/>
<rect x="23.0098" y="-17.7617" width="231.293" height="2.07204" transform="rotate(90 23.0098 -17.7617)" fill="white"/>
<rect x="27.7969" y="-17.7617" width="231.293" height="2.07204" transform="rotate(90 27.7969 -17.7617)" fill="white"/>
<rect x="32.585" y="-17.7617" width="231.293" height="2.07204" transform="rotate(90 32.585 -17.7617)" fill="white"/>
<rect x="37.3721" y="-17.7617" width="231.293" height="2.07204" transform="rotate(90 37.3721 -17.7617)" fill="white"/>
<rect x="42.1592" y="-17.7617" width="231.293" height="2.07204" transform="rotate(90 42.1592 -17.7617)" fill="white"/>
<rect x="46.9463" y="-17.7617" width="231.293" height="2.07204" transform="rotate(90 46.9463 -17.7617)" fill="white"/>
<rect x="51.7344" y="-17.7617" width="231.293" height="2.07204" transform="rotate(90 51.7344 -17.7617)" fill="white"/>
<rect x="56.5215" y="-17.7617" width="231.293" height="2.07204" transform="rotate(90 56.5215 -17.7617)" fill="white"/>
<rect x="61.3086" y="-17.7617" width="231.293" height="2.07204" transform="rotate(90 61.3086 -17.7617)" fill="white"/>
<rect x="66.0967" y="-17.7617" width="231.293" height="2.07204" transform="rotate(90 66.0967 -17.7617)" fill="white"/>
<rect x="70.8838" y="-17.7617" width="231.293" height="2.07204" transform="rotate(90 70.8838 -17.7617)" fill="white"/>
<rect x="75.6709" y="-17.7617" width="231.293" height="2.07204" transform="rotate(90 75.6709 -17.7617)" fill="white"/>
<rect x="80.459" y="-17.7617" width="231.293" height="2.07204" transform="rotate(90 80.459 -17.7617)" fill="white"/>
<rect x="85.2461" y="-17.7617" width="231.293" height="2.07204" transform="rotate(90 85.2461 -17.7617)" fill="white"/>
<rect x="90.0332" y="-17.7617" width="231.293" height="2.07204" transform="rotate(90 90.0332 -17.7617)" fill="white"/>
<rect x="94.8213" y="-17.7617" width="231.293" height="2.07204" transform="rotate(90 94.8213 -17.7617)" fill="white"/>
<rect x="99.6084" y="-17.7617" width="231.293" height="2.07204" transform="rotate(90 99.6084 -17.7617)" fill="white"/>
<rect x="104.396" y="-17.7617" width="231.293" height="2.07204" transform="rotate(90 104.396 -17.7617)" fill="white"/>
<rect x="109.183" y="-17.7617" width="231.293" height="2.07204" transform="rotate(90 109.183 -17.7617)" fill="white"/>
<rect x="113.971" y="-17.7617" width="231.293" height="2.07204" transform="rotate(90 113.971 -17.7617)" fill="white"/>
<rect x="118.758" y="-17.7617" width="231.293" height="2.07204" transform="rotate(90 118.758 -17.7617)" fill="white"/>
<rect x="123.545" y="-17.7617" width="231.293" height="2.07204" transform="rotate(90 123.545 -17.7617)" fill="white"/>
<rect x="128.333" y="-17.7617" width="231.293" height="2.07204" transform="rotate(90 128.333 -17.7617)" fill="white"/>
<rect x="133.12" y="-17.7617" width="231.293" height="2.07204" transform="rotate(90 133.12 -17.7617)" fill="white"/>
<rect x="137.907" y="-17.7617" width="231.293" height="2.07204" transform="rotate(90 137.907 -17.7617)" fill="white"/>
<rect x="142.695" y="-17.7617" width="231.293" height="2.07204" transform="rotate(90 142.695 -17.7617)" fill="white"/>
<rect x="147.482" y="-17.7617" width="231.293" height="2.07204" transform="rotate(90 147.482 -17.7617)" fill="white"/>
<rect x="152.27" y="-17.7617" width="231.293" height="2.07204" transform="rotate(90 152.27 -17.7617)" fill="white"/>
<rect x="157.058" y="-17.7617" width="231.293" height="2.07204" transform="rotate(90 157.058 -17.7617)" fill="white"/>
<rect x="161.845" y="-17.7617" width="231.293" height="2.07204" transform="rotate(90 161.845 -17.7617)" fill="white"/>
<rect x="166.632" y="-17.7617" width="231.293" height="2.07204" transform="rotate(90 166.632 -17.7617)" fill="white"/>
<rect x="171.419" y="-17.7617" width="231.293" height="2.07204" transform="rotate(90 171.419 -17.7617)" fill="white"/>
<rect x="176.207" y="-17.7617" width="231.293" height="2.07204" transform="rotate(90 176.207 -17.7617)" fill="white"/>
<rect x="180.994" y="-17.7617" width="231.293" height="2.07204" transform="rotate(90 180.994 -17.7617)" fill="white"/>
<rect x="185.781" y="-17.7617" width="231.293" height="2.07204" transform="rotate(90 185.781 -17.7617)" fill="white"/>
<rect x="190.569" y="-17.7617" width="231.293" height="2.07204" transform="rotate(90 190.569 -17.7617)" fill="white"/>
<rect x="195.356" y="-17.7617" width="231.293" height="2.07204" transform="rotate(90 195.356 -17.7617)" fill="white"/>
</g>
<defs>
<linearGradient id="paint0_linear_68_275" x1="197.063" y1="98.5316" x2="-8.61391e-06" y2="98.5316" gradientUnits="userSpaceOnUse">
<stop offset="0.147217" stop-color="#CDCBFF"/>
<stop offset="1" stop-color="#DFFAFF"/>
</linearGradient>
<linearGradient id="paint1_linear_68_275" x1="0" y1="98.5" x2="197" y2="98.5" gradientUnits="userSpaceOnUse">
<stop stop-color="#F0E1FF"/>
<stop offset="1" stop-color="#CDCBFF"/>
</linearGradient>
</defs>
</svg>