<svg xmlns="http://www.w3.org/2000/svg" width="198" height="198" viewBox="0 0 198 198" fill="none">
<circle cx="99.2914" cy="98.5316" r="98.5316" fill="url(#paint0_linear_1_322)"/>
<mask id="mask0_1_322" style="mask-type:alpha" maskUnits="userSpaceOnUse" x="0" y="0" width="198" height="198">
<circle cx="99.2914" cy="98.5316" r="98.5316" fill="url(#paint1_linear_1_322)"/>
</mask>
<g mask="url(#mask0_1_322)">
<rect x="2.83105" y="-17.7617" width="231.293" height="2.07204" transform="rotate(90 2.83105 -17.7617)" fill="white"/>
<rect x="7.61914" y="-17.7617" width="231.293" height="2.07204" transform="rotate(90 7.61914 -17.7617)" fill="white"/>
<rect x="12.4062" y="-17.7617" width="231.293" height="2.07204" transform="rotate(90 12.4062 -17.7617)" fill="white"/>
<rect x="17.1934" y="-17.7617" width="231.293" height="2.07204" transform="rotate(90 17.1934 -17.7617)" fill="white"/>
<rect x="21.9814" y="-17.7617" width="231.293" height="2.07204" transform="rotate(90 21.9814 -17.7617)" fill="white"/>
<rect x="26.7686" y="-17.7617" width="231.293" height="2.07204" transform="rotate(90 26.7686 -17.7617)" fill="white"/>
<rect x="31.5557" y="-17.7617" width="231.293" height="2.07204" transform="rotate(90 31.5557 -17.7617)" fill="white"/>
<rect x="36.3438" y="-17.7617" width="231.293" height="2.07204" transform="rotate(90 36.3438 -17.7617)" fill="white"/>
<rect x="41.1309" y="-17.7617" width="231.293" height="2.07204" transform="rotate(90 41.1309 -17.7617)" fill="white"/>
<rect x="45.918" y="-17.7617" width="231.293" height="2.07204" transform="rotate(90 45.918 -17.7617)" fill="white"/>
<rect x="50.7051" y="-17.7617" width="231.293" height="2.07204" transform="rotate(90 50.7051 -17.7617)" fill="white"/>
<rect x="55.4932" y="-17.7617" width="231.293" height="2.07204" transform="rotate(90 55.4932 -17.7617)" fill="white"/>
<rect x="60.2803" y="-17.7617" width="231.293" height="2.07204" transform="rotate(90 60.2803 -17.7617)" fill="white"/>
<rect x="65.0674" y="-17.7617" width="231.293" height="2.07204" transform="rotate(90 65.0674 -17.7617)" fill="white"/>
<rect x="69.8555" y="-17.7617" width="231.293" height="2.07204" transform="rotate(90 69.8555 -17.7617)" fill="white"/>
<rect x="74.6426" y="-17.7617" width="231.293" height="2.07204" transform="rotate(90 74.6426 -17.7617)" fill="white"/>
<rect x="79.4297" y="-17.7617" width="231.293" height="2.07204" transform="rotate(90 79.4297 -17.7617)" fill="white"/>
<rect x="84.2178" y="-17.7617" width="231.293" height="2.07204" transform="rotate(90 84.2178 -17.7617)" fill="white"/>
<rect x="89.0049" y="-17.7617" width="231.293" height="2.07204" transform="rotate(90 89.0049 -17.7617)" fill="white"/>
<rect x="93.792" y="-17.7617" width="231.293" height="2.07204" transform="rotate(90 93.792 -17.7617)" fill="white"/>
<rect x="98.5801" y="-17.7617" width="231.293" height="2.07204" transform="rotate(90 98.5801 -17.7617)" fill="white"/>
<rect x="103.367" y="-17.7617" width="231.293" height="2.07204" transform="rotate(90 103.367 -17.7617)" fill="white"/>
<rect x="108.154" y="-17.7617" width="231.293" height="2.07204" transform="rotate(90 108.154 -17.7617)" fill="white"/>
<rect x="112.941" y="-17.7617" width="231.293" height="2.07204" transform="rotate(90 112.941 -17.7617)" fill="white"/>
<rect x="117.729" y="-17.7617" width="231.293" height="2.07204" transform="rotate(90 117.729 -17.7617)" fill="white"/>
<rect x="122.517" y="-17.7617" width="231.293" height="2.07204" transform="rotate(90 122.517 -17.7617)" fill="white"/>
<rect x="127.304" y="-17.7617" width="231.293" height="2.07204" transform="rotate(90 127.304 -17.7617)" fill="white"/>
<rect x="132.092" y="-17.7617" width="231.293" height="2.07204" transform="rotate(90 132.092 -17.7617)" fill="white"/>
<rect x="136.879" y="-17.7617" width="231.293" height="2.07204" transform="rotate(90 136.879 -17.7617)" fill="white"/>
<rect x="141.666" y="-17.7617" width="231.293" height="2.07204" transform="rotate(90 141.666 -17.7617)" fill="white"/>
<rect x="146.454" y="-17.7617" width="231.293" height="2.07204" transform="rotate(90 146.454 -17.7617)" fill="white"/>
<rect x="151.241" y="-17.7617" width="231.293" height="2.07204" transform="rotate(90 151.241 -17.7617)" fill="white"/>
<rect x="156.028" y="-17.7617" width="231.293" height="2.07204" transform="rotate(90 156.028 -17.7617)" fill="white"/>
<rect x="160.816" y="-17.7617" width="231.293" height="2.07204" transform="rotate(90 160.816 -17.7617)" fill="white"/>
<rect x="165.604" y="-17.7617" width="231.293" height="2.07204" transform="rotate(90 165.604 -17.7617)" fill="white"/>
<rect x="170.391" y="-17.7617" width="231.293" height="2.07204" transform="rotate(90 170.391 -17.7617)" fill="white"/>
<rect x="175.178" y="-17.7617" width="231.293" height="2.07204" transform="rotate(90 175.178 -17.7617)" fill="white"/>
<rect x="179.966" y="-17.7617" width="231.293" height="2.07204" transform="rotate(90 179.966 -17.7617)" fill="white"/>
<rect x="184.753" y="-17.7617" width="231.293" height="2.07204" transform="rotate(90 184.753 -17.7617)" fill="white"/>
<rect x="189.54" y="-17.7617" width="231.293" height="2.07204" transform="rotate(90 189.54 -17.7617)" fill="white"/>
<rect x="194.328" y="-17.7617" width="231.293" height="2.07204" transform="rotate(90 194.328 -17.7617)" fill="white"/>
<rect x="199.115" y="-17.7617" width="231.293" height="2.07204" transform="rotate(90 199.115 -17.7617)" fill="white"/>
</g>
<defs>
<linearGradient id="paint0_linear_1_322" x1="197.823" y1="98.5316" x2="0.759757" y2="98.5316" gradientUnits="userSpaceOnUse">
<stop offset="0.147217" stop-color="#CDCBFF"/>
<stop offset="1" stop-color="#DFFAFF"/>
</linearGradient>
<linearGradient id="paint1_linear_1_322" x1="0.759766" y1="98.5316" x2="197.823" y2="98.5316" gradientUnits="userSpaceOnUse">
<stop stop-color="#F0E1FF"/>
<stop offset="1" stop-color="#CDCBFF"/>
</linearGradient>
</defs>
</svg>