<svg xmlns="http://www.w3.org/2000/svg" width="25" height="24" viewBox="0 0 25 24" fill="none">
<path d="M12.085 22.7504C6.88504 22.7504 2.66504 18.5204 2.66504 13.3304C2.66504 8.14039 6.88504 3.90039 12.085 3.90039C13.155 3.90039 14.195 4.05039 15.195 4.36039C15.595 4.48039 15.815 4.90039 15.695 5.30039C15.575 5.70039 15.155 5.92039 14.755 5.80039C13.905 5.54039 13.005 5.40039 12.085 5.40039C7.71504 5.40039 4.16504 8.95039 4.16504 13.3204C4.16504 17.6904 7.71504 21.2404 12.085 21.2404C16.455 21.2404 20.005 17.6904 20.005 13.3204C20.005 11.7404 19.545 10.2204 18.675 8.92039C18.445 8.58039 18.535 8.11039 18.885 7.88039C19.225 7.65039 19.695 7.74039 19.925 8.09039C20.965 9.64039 21.515 11.4504 21.515 13.3304C21.505 18.5204 17.285 22.7504 12.085 22.7504Z" fill="#20247E" stroke="#20247E" stroke-width="0.5"/>
<path d="M16.2154 6.07021C16.0054 6.07021 15.7954 5.98021 15.6454 5.81021L12.7554 2.49021C12.4854 2.18021 12.5154 1.70021 12.8254 1.43021C13.1354 1.16021 13.6154 1.19021 13.8854 1.50021L16.7754 4.82021C17.0454 5.13021 17.0154 5.61021 16.7054 5.88021C16.5754 6.01021 16.3954 6.07021 16.2154 6.07021Z" fill="#4E4039" stroke="#4E4039" stroke-width="0.5"/>
<path d="M12.8452 8.5302C12.6152 8.5302 12.3852 8.4202 12.2352 8.2202C11.9952 7.8902 12.0652 7.4202 12.3952 7.1702L15.7652 4.7102C16.0952 4.4602 16.5652 4.5402 16.8152 4.8702C17.0652 5.2002 16.9852 5.6702 16.6552 5.9202L13.2852 8.3902C13.1552 8.4902 13.0052 8.5302 12.8452 8.5302Z" fill="#4E4039" stroke="#4E4039" stroke-width="0.5"/>
</svg>